<?xml version="1.0" encoding="iso-8859-1"?>
<!-- Uploaded to: SVG Repo, www.svgrepo.com, Generator: SVG Repo Mixer Tools -->
<svg fill="#000000" height="800px" width="800px" version="1.1" id="Layer_1" xmlns="http://www.w3.org/2000/svg" xmlns:xlink="http://www.w3.org/1999/xlink" 
	 viewBox="0 0 511.998 511.998" xml:space="preserve">
<g>
	<g>
		<path d="M434.377,219.025c3.526-3.048,5.765-7.542,5.765-12.568c0-9.179-7.441-16.62-16.62-16.62h-34.313l-22.561-97.14
			c-1.748-7.53-8.459-12.859-16.189-12.859h-56.505c-9.178,0-16.62,7.441-16.62,16.62s7.441,16.62,16.62,16.62h43.303l5.153,22.188
			c-40.093,2.302-77.095,11.598-110.222,27.764c-15.744,7.684-30.608,16.908-44.497,27.585l-6.81-26.552
			c7.302-1.752,12.734-8.305,12.734-16.144c0-9.178-7.441-16.62-16.62-16.62h-62.601c-9.178,0-16.62,7.441-16.62,16.62
			c0,9.179,7.441,16.62,16.62,16.62h32.292l3.462,13.502c-17.257-4.609-35.346-6.173-53.339-4.451
			c-34.644,3.315-67.296,18.717-91.943,43.364c-6.491,6.489-6.491,17.013,0,23.504c3.245,3.245,7.499,4.868,11.751,4.868
			c4.252,0,8.507-1.623,11.751-4.868c34.609-34.609,86.964-43.56,130.529-24.189c-2.053,2.111-4.067,4.272-6.062,6.459
			c-12.828-5.328-26.885-8.277-41.619-8.277c-60.022,0-108.853,48.832-108.853,108.854c0,60.022,48.831,108.853,108.853,108.853
			c54.373,0,99.562-40.072,107.587-92.234h25.224c5.836,0,11.243-3.061,14.247-8.063l65.33-108.786h37.075
			c-38.985,16.579-66.392,55.263-66.392,100.229c0,60.022,48.832,108.853,108.854,108.853c60.022,0,108.854-48.831,108.854-108.853
			C511.999,274.135,479.224,232.482,434.377,219.025z M160.39,265.933c19.746,12.174,22.751,40.753,22.751,40.753h-47.176
			C141.279,295.592,149.231,281.19,160.39,265.933z M111.218,398.92c-41.694,0-75.614-33.92-75.614-75.614
			c0-41.694,33.92-75.615,75.614-75.615c6.734,0,13.261,0.897,19.481,2.557c-25.446,35.978-34.921,66.697-35.392,68.257
			c-1.519,5.035-0.566,10.49,2.569,14.711c3.134,4.221,8.083,6.71,13.341,6.71h73.753
			C177.375,373.648,147.202,398.92,111.218,398.92z M314.201,189.837v0.001c-5.836,0-11.243,3.061-14.247,8.063l-65.33,108.786
			h-15.819c-1.574-10.232-22.019-80.603-22.019-80.603c41.281-36.193,92.662-55.626,153.264-57.92l5.034,21.673H314.201z
			 M403.145,398.92c-41.694,0-75.615-33.92-75.615-75.614c0-29.919,17.468-55.833,42.74-68.085l16.686,71.845
			c2.076,8.936,11,14.503,19.949,12.429c8.94-2.076,14.506-11.009,12.429-19.949l-16.685-71.842c0.166-0.001,0.33-0.012,0.496-0.012
			c41.694,0,75.615,33.921,75.615,75.615C478.761,365,444.839,398.92,403.145,398.92z"/>
	</g>
</g>
</svg>